<svg width="24" height="24" viewBox="0 0 24 24" fill="none" xmlns="http://www.w3.org/2000/svg">
<path fill-rule="evenodd" clip-rule="evenodd" d="M23.6806 12.3707C22.4175 6.38913 15.7422 0.760852 11.1638 0.24234V0.242898C10.792 0.478991 10.4828 0.774247 10.2333 1.11918C12.9007 1.36643 15.2292 3.15025 17.9044 6.01462C19.9824 8.2416 21.3721 11.7981 21.7132 15.5454C21.8505 17.0284 21.8214 18.5404 21.611 20.0128C23.7554 17.6635 24.2332 14.9834 23.6806 12.3707Z" fill="#F29100"/>
<path fill-rule="evenodd" clip-rule="evenodd" d="M21.7134 15.5457C21.8507 17.0281 21.8217 18.5401 21.6107 20.013C19.1739 22.7602 10.7639 24.1193 5.42525 23.7308V23.7286C4.61874 22.581 4.20795 21.3141 4.10358 19.9868C10.8872 21.2549 18.1503 19.2043 21.7134 15.5457Z" fill="#EA5B25"/>
<path fill-rule="evenodd" clip-rule="evenodd" d="M16.6221 6.94955C18.1877 9.44109 17.8734 13.9319 16.1304 16.5228L15.9077 16.4686C14.7395 15.9719 13.5534 14.8216 12.5186 13.3447C16.0131 9.10565 14.0775 5.88574 11.6317 5.22602C10.9017 5.02676 10.127 5.0569 9.43658 5.35718C11.7847 4.23867 14.8918 4.38435 16.6221 6.94955Z" fill="#1967D2"/>
<path fill-rule="evenodd" clip-rule="evenodd" d="M9.4368 5.35741C10.1267 5.05713 10.9014 5.02644 11.632 5.22625C11.018 5.80113 10.375 6.46365 9.73652 7.19369C9.58415 6.5736 9.47643 5.96132 9.41559 5.36746V5.36579C9.42452 5.36244 9.42898 5.35909 9.4368 5.35741Z" fill="#A9AA00"/>
<path fill-rule="evenodd" clip-rule="evenodd" d="M15.9077 16.4685C14.7395 15.9717 13.5535 14.8214 12.5187 13.3446C11.2802 11.5803 10.256 9.34381 9.73638 7.19386C9.58401 6.57321 9.47629 5.96149 9.41601 5.36707V5.36539C9.2441 3.68763 9.46568 2.17172 10.2331 1.11907C10.4832 0.774137 10.7918 0.478882 11.1635 0.243347V0.24223C9.77936 0.0865095 8.5855 0.395719 7.79406 1.30716H7.79015C7.18959 1.99646 6.81564 3.02846 6.76373 4.46232C6.66661 5.19628 6.59406 6.24279 6.58066 7.44C6.5695 8.60986 6.61973 9.91981 6.76485 11.2303C7.31629 16.1944 9.25359 21.1233 14.5732 18.0486C15.1755 17.6986 15.6979 17.1684 16.1304 16.5232L15.9077 16.4685Z" fill="#4285F4"/>
<path fill-rule="evenodd" clip-rule="evenodd" d="M4.10373 19.9868C3.88103 17.1409 5.06708 14.0192 6.76494 11.2307C6.61982 9.91966 6.56959 8.6097 6.58075 7.4404C3.79173 10.0279 0.441216 15.0283 0.0399132 18.7997C-0.169389 20.7654 0.423355 22.3952 2.31991 23.1744C3.11303 23.4573 4.18633 23.6404 5.4254 23.7308V23.7286C4.61833 22.581 4.20754 21.3141 4.10373 19.9868Z" fill="#A9AA00"/>
</svg>
